<svg xmlns="http://www.w3.org/2000/svg" xmlns:xlink="http://www.w3.org/1999/xlink" width="300" zoomAndPan="magnify" viewBox="0 0 224.87999 83.04" height="100" preserveAspectRatio="xMidYMid meet" version="1.0"><defs><g/></defs><g fill="#00baa6" fill-opacity="1"><g transform="translate(36.574111, 46.340249)"><g><path d="M 1.765625 -24.546875 L 7.703125 -24.546875 L 17.703125 -9.6875 L 17.703125 -24.546875 L 23.65625 -24.546875 L 23.65625 0 L 17.703125 0 L 7.703125 -14.859375 L 7.703125 0 L 1.765625 0 Z M 1.765625 -24.546875 "/></g></g></g><g fill="#00baa6" fill-opacity="1"><g transform="translate(60.82337, 46.340249)"><g><path d="M 5.265625 -17.546875 L 15.234375 -17.546875 C 16.222656 -17.546875 17.050781 -17.203125 17.71875 -16.515625 C 18.394531 -15.828125 18.734375 -14.988281 18.734375 -14 L 18.734375 -7 L 7.1875 -7 L 7.1875 -5.359375 C 7.1875 -5.148438 7.28125 -4.945312 7.46875 -4.75 C 7.664062 -4.550781 7.867188 -4.453125 8.078125 -4.453125 L 12.421875 -4.453125 C 12.660156 -4.453125 12.867188 -4.550781 13.046875 -4.75 C 13.222656 -4.945312 13.3125 -5.148438 13.3125 -5.359375 L 13.3125 -6.125 L 18.734375 -6.125 L 18.734375 -3.5 C 18.734375 -2.53125 18.394531 -1.703125 17.71875 -1.015625 C 17.050781 -0.335938 16.222656 0 15.234375 0 L 5.265625 0 C 4.296875 0 3.46875 -0.335938 2.78125 -1.015625 C 2.101562 -1.703125 1.765625 -2.53125 1.765625 -3.5 L 1.765625 -14 C 1.765625 -14.988281 2.101562 -15.828125 2.78125 -16.515625 C 3.46875 -17.203125 4.296875 -17.546875 5.265625 -17.546875 Z M 7.1875 -10.5 L 13.3125 -10.5 L 13.3125 -12.171875 C 13.3125 -12.410156 13.222656 -12.617188 13.046875 -12.796875 C 12.867188 -12.972656 12.660156 -13.0625 12.421875 -13.0625 L 8.078125 -13.0625 C 7.867188 -13.0625 7.664062 -12.972656 7.46875 -12.796875 C 7.28125 -12.617188 7.1875 -12.410156 7.1875 -12.171875 Z M 7.1875 -10.5 "/></g></g></g><g fill="#00baa6" fill-opacity="1"><g transform="translate(80.153346, 46.340249)"><g><path d="M 2.265625 -24.328125 L 7.703125 -24.328125 L 7.703125 -17.546875 L 12.96875 -17.546875 L 12.96875 -13.0625 L 7.703125 -13.0625 L 7.703125 -5.359375 C 7.703125 -5.148438 7.796875 -4.945312 7.984375 -4.75 C 8.171875 -4.550781 8.367188 -4.453125 8.578125 -4.453125 L 12.96875 -4.453125 L 12.96875 0 L 5.765625 0 C 4.804688 0 3.984375 -0.335938 3.296875 -1.015625 C 2.609375 -1.703125 2.265625 -2.53125 2.265625 -3.5 Z M 2.265625 -24.328125 "/></g></g></g><g fill="#bd93f9" fill-opacity="1"><g transform="translate(92.551966, 46.340249)"><g><path d="M 5.265625 -24.546875 L 20.15625 -24.546875 C 20.789062 -24.546875 21.375 -24.382812 21.90625 -24.0625 C 22.445312 -23.75 22.875 -23.320312 23.1875 -22.78125 C 23.5 -22.25 23.65625 -21.671875 23.65625 -21.046875 L 23.65625 -3.5 C 23.65625 -2.875 23.5 -2.296875 23.1875 -1.765625 C 22.875 -1.242188 22.445312 -0.816406 21.90625 -0.484375 C 21.375 -0.160156 20.789062 0 20.15625 0 L 15.703125 0 L 15.703125 5.265625 L 9.75 5.265625 L 9.75 0 L 5.265625 0 C 4.640625 0 4.0625 -0.160156 3.53125 -0.484375 C 3.007812 -0.816406 2.582031 -1.242188 2.25 -1.765625 C 1.925781 -2.296875 1.765625 -2.875 1.765625 -3.5 L 1.765625 -21.046875 C 1.765625 -21.671875 1.925781 -22.25 2.25 -22.78125 C 2.582031 -23.320312 3.007812 -23.75 3.53125 -24.0625 C 4.0625 -24.382812 4.640625 -24.546875 5.265625 -24.546875 Z M 8.578125 -19.53125 C 8.328125 -19.53125 8.117188 -19.445312 7.953125 -19.28125 C 7.785156 -19.125 7.703125 -18.921875 7.703125 -18.671875 L 7.703125 -5.875 C 7.703125 -5.613281 7.785156 -5.40625 7.953125 -5.25 C 8.117188 -5.09375 8.328125 -5.015625 8.578125 -5.015625 L 16.8125 -5.015625 C 17.0625 -5.015625 17.269531 -5.09375 17.4375 -5.25 C 17.613281 -5.40625 17.703125 -5.613281 17.703125 -5.875 L 17.703125 -18.671875 C 17.703125 -18.921875 17.613281 -19.125 17.4375 -19.28125 C 17.269531 -19.445312 17.0625 -19.53125 16.8125 -19.53125 Z M 8.578125 -19.53125 "/></g></g></g><g fill="#bd93f9" fill-opacity="1"><g transform="translate(116.801225, 46.340249)"><g><path d="M 1.765625 -17.546875 L 7.1875 -17.546875 L 7.1875 -5.359375 C 7.1875 -5.148438 7.28125 -4.945312 7.46875 -4.75 C 7.664062 -4.550781 7.867188 -4.453125 8.078125 -4.453125 L 11.578125 -4.453125 C 12.054688 -4.453125 12.460938 -4.640625 12.796875 -5.015625 C 13.140625 -5.390625 13.3125 -5.820312 13.3125 -6.3125 L 13.3125 -17.546875 L 18.734375 -17.546875 L 18.734375 0 L 13.3125 0 L 13.3125 -2.359375 C 12.976562 -1.628906 12.476562 -1.050781 11.8125 -0.625 C 11.15625 -0.207031 10.457031 0 9.71875 0 L 5.265625 0 C 4.296875 0 3.46875 -0.335938 2.78125 -1.015625 C 2.101562 -1.703125 1.765625 -2.53125 1.765625 -3.5 Z M 1.765625 -17.546875 "/></g></g></g><g fill="#bd93f9" fill-opacity="1"><g transform="translate(136.131201, 46.340249)"><g><path d="M 5.265625 -17.546875 L 15.234375 -17.546875 C 16.222656 -17.546875 17.050781 -17.203125 17.71875 -16.515625 C 18.394531 -15.828125 18.734375 -14.988281 18.734375 -14 L 18.734375 -7 L 7.1875 -7 L 7.1875 -5.359375 C 7.1875 -5.148438 7.28125 -4.945312 7.46875 -4.75 C 7.664062 -4.550781 7.867188 -4.453125 8.078125 -4.453125 L 12.421875 -4.453125 C 12.660156 -4.453125 12.867188 -4.550781 13.046875 -4.75 C 13.222656 -4.945312 13.3125 -5.148438 13.3125 -5.359375 L 13.3125 -6.125 L 18.734375 -6.125 L 18.734375 -3.5 C 18.734375 -2.53125 18.394531 -1.703125 17.71875 -1.015625 C 17.050781 -0.335938 16.222656 0 15.234375 0 L 5.265625 0 C 4.296875 0 3.46875 -0.335938 2.78125 -1.015625 C 2.101562 -1.703125 1.765625 -2.53125 1.765625 -3.5 L 1.765625 -14 C 1.765625 -14.988281 2.101562 -15.828125 2.78125 -16.515625 C 3.46875 -17.203125 4.296875 -17.546875 5.265625 -17.546875 Z M 7.1875 -10.5 L 13.3125 -10.5 L 13.3125 -12.171875 C 13.3125 -12.410156 13.222656 -12.617188 13.046875 -12.796875 C 12.867188 -12.972656 12.660156 -13.0625 12.421875 -13.0625 L 8.078125 -13.0625 C 7.867188 -13.0625 7.664062 -12.972656 7.46875 -12.796875 C 7.28125 -12.617188 7.1875 -12.410156 7.1875 -12.171875 Z M 7.1875 -10.5 "/></g></g></g><g fill="#bd93f9" fill-opacity="1"><g transform="translate(155.461176, 46.340249)"><g><path d="M 5.265625 -17.546875 L 15.234375 -17.546875 C 15.867188 -17.546875 16.453125 -17.378906 16.984375 -17.046875 C 17.523438 -16.722656 17.953125 -16.289062 18.265625 -15.75 C 18.578125 -15.21875 18.734375 -14.632812 18.734375 -14 L 18.734375 -11.484375 L 13.3125 -11.484375 L 13.3125 -12.171875 C 13.3125 -12.410156 13.222656 -12.617188 13.046875 -12.796875 C 12.867188 -12.972656 12.660156 -13.0625 12.421875 -13.0625 L 8.078125 -13.0625 C 7.867188 -13.0625 7.664062 -12.972656 7.46875 -12.796875 C 7.28125 -12.617188 7.1875 -12.410156 7.1875 -12.171875 L 7.1875 -11.390625 C 7.1875 -11.179688 7.28125 -10.976562 7.46875 -10.78125 C 7.664062 -10.59375 7.867188 -10.5 8.078125 -10.5 L 15.234375 -10.5 C 16.222656 -10.5 17.050781 -10.144531 17.71875 -9.4375 C 18.394531 -8.738281 18.734375 -7.894531 18.734375 -6.90625 L 18.734375 -3.5 C 18.734375 -2.53125 18.394531 -1.703125 17.71875 -1.015625 C 17.050781 -0.335938 16.222656 0 15.234375 0 L 5.265625 0 C 4.640625 0 4.0625 -0.160156 3.53125 -0.484375 C 3.007812 -0.816406 2.582031 -1.242188 2.25 -1.765625 C 1.925781 -2.296875 1.765625 -2.875 1.765625 -3.5 L 1.765625 -6.03125 L 7.1875 -6.03125 L 7.1875 -5.359375 C 7.1875 -5.148438 7.28125 -4.945312 7.46875 -4.75 C 7.664062 -4.550781 7.867188 -4.453125 8.078125 -4.453125 L 12.421875 -4.453125 C 12.660156 -4.453125 12.867188 -4.550781 13.046875 -4.75 C 13.222656 -4.945312 13.3125 -5.148438 13.3125 -5.359375 L 13.3125 -6.125 C 13.3125 -6.351562 13.222656 -6.554688 13.046875 -6.734375 C 12.867188 -6.910156 12.660156 -7 12.421875 -7 L 5.265625 -7 C 4.296875 -7 3.46875 -7.335938 2.78125 -8.015625 C 2.101562 -8.703125 1.765625 -9.53125 1.765625 -10.5 L 1.765625 -14 C 1.765625 -14.988281 2.101562 -15.828125 2.78125 -16.515625 C 3.46875 -17.203125 4.296875 -17.546875 5.265625 -17.546875 Z M 5.265625 -17.546875 "/></g></g></g><g fill="#bd93f9" fill-opacity="1"><g transform="translate(174.791152, 46.340249)"><g><path d="M 2.265625 -24.328125 L 7.703125 -24.328125 L 7.703125 -17.546875 L 12.96875 -17.546875 L 12.96875 -13.0625 L 7.703125 -13.0625 L 7.703125 -5.359375 C 7.703125 -5.148438 7.796875 -4.945312 7.984375 -4.75 C 8.171875 -4.550781 8.367188 -4.453125 8.578125 -4.453125 L 12.96875 -4.453125 L 12.96875 0 L 5.765625 0 C 4.804688 0 3.984375 -0.335938 3.296875 -1.015625 C 2.609375 -1.703125 2.265625 -2.53125 2.265625 -3.5 Z M 2.265625 -24.328125 "/></g></g></g></svg>