<svg xmlns="http://www.w3.org/2000/svg" xmlns:xlink="http://www.w3.org/1999/xlink" width="300" zoomAndPan="magnify" viewBox="0 0 224.87999 74.999997" height="100" preserveAspectRatio="xMidYMid meet" version="1.0"><defs><g/><clipPath id="7885a952a3"><path d="M 3 0.0195312 L 221 0.0195312 L 221 74.980469 L 3 74.980469 Z M 3 0.0195312 " clip-rule="nonzero"/></clipPath><clipPath id="0edb81abb2"><rect x="0" width="218" y="0" height="75"/></clipPath></defs><g clip-path="url(#7885a952a3)"><g transform="matrix(1, 0, 0, 1, 3, -0.000000000000000847)"><g clip-path="url(#0edb81abb2)"><g fill="#ff5757" fill-opacity="0.302"><g transform="translate(6.116396, 56.835391)"><g><path d="M 2.53125 -35.234375 L 11.046875 -35.234375 L 22.640625 -14.890625 L 22.640625 -35.234375 L 31.203125 -35.234375 L 31.203125 0 L 22.640625 0 L 11.046875 -20.328125 L 11.046875 0 L 2.53125 0 Z M 2.53125 -35.234375 "/></g></g></g><g fill="#ff5757" fill-opacity="0.302"><g transform="translate(39.808721, 56.835391)"><g><path d="M 7.5625 -25.171875 L 19.875 -25.171875 C 21.289062 -25.171875 22.484375 -24.679688 23.453125 -23.703125 C 24.421875 -22.722656 24.90625 -21.523438 24.90625 -20.109375 L 24.90625 -10.046875 L 10.328125 -10.046875 L 10.328125 -7.703125 C 10.328125 -7.398438 10.460938 -7.101562 10.734375 -6.8125 C 11.003906 -6.53125 11.289062 -6.390625 11.59375 -6.390625 L 15.84375 -6.390625 C 16.175781 -6.390625 16.46875 -6.53125 16.71875 -6.8125 C 16.976562 -7.101562 17.109375 -7.398438 17.109375 -7.703125 L 17.109375 -8.96875 L 24.90625 -8.96875 L 24.90625 -5.03125 C 24.90625 -3.632812 24.421875 -2.445312 23.453125 -1.46875 C 22.484375 -0.488281 21.289062 0 19.875 0 L 7.5625 0 C 6.175781 0 4.988281 -0.488281 4 -1.46875 C 3.019531 -2.445312 2.53125 -3.632812 2.53125 -5.03125 L 2.53125 -20.109375 C 2.53125 -21.523438 3.019531 -22.722656 4 -23.703125 C 4.988281 -24.679688 6.175781 -25.171875 7.5625 -25.171875 Z M 10.328125 -15.078125 L 17.109375 -15.078125 L 17.109375 -17.484375 C 17.109375 -17.816406 16.976562 -18.109375 16.71875 -18.359375 C 16.46875 -18.617188 16.175781 -18.75 15.84375 -18.75 L 11.59375 -18.75 C 11.289062 -18.75 11.003906 -18.617188 10.734375 -18.359375 C 10.460938 -18.109375 10.328125 -17.816406 10.328125 -17.484375 Z M 10.328125 -15.078125 "/></g></g></g><g fill="#ff5757" fill-opacity="0.302"><g transform="translate(67.16109, 56.835391)"><g><path d="M 3.265625 -34.59375 L 11.046875 -34.59375 L 11.046875 -25.171875 L 16.625 -25.171875 L 16.625 -18.75 L 11.046875 -18.75 L 11.046875 -7.703125 C 11.046875 -7.398438 11.179688 -7.101562 11.453125 -6.8125 C 11.722656 -6.53125 12.007812 -6.390625 12.3125 -6.390625 L 16.625 -6.390625 L 16.625 0 L 8.28125 0 C 6.894531 0 5.710938 -0.488281 4.734375 -1.46875 C 3.753906 -2.445312 3.265625 -3.632812 3.265625 -5.03125 Z M 3.265625 -34.59375 "/></g></g></g><g fill="#ff5757" fill-opacity="0.502"><g transform="translate(3.306142, 54.63978)"><g><path d="M 2.53125 -35.234375 L 11.046875 -35.234375 L 22.640625 -14.890625 L 22.640625 -35.234375 L 31.203125 -35.234375 L 31.203125 0 L 22.640625 0 L 11.046875 -20.328125 L 11.046875 0 L 2.53125 0 Z M 2.53125 -35.234375 "/></g></g></g><g fill="#ff5757" fill-opacity="0.502"><g transform="translate(36.998468, 54.63978)"><g><path d="M 7.5625 -25.171875 L 19.875 -25.171875 C 21.289062 -25.171875 22.484375 -24.679688 23.453125 -23.703125 C 24.421875 -22.722656 24.90625 -21.523438 24.90625 -20.109375 L 24.90625 -10.046875 L 10.328125 -10.046875 L 10.328125 -7.703125 C 10.328125 -7.398438 10.460938 -7.101562 10.734375 -6.8125 C 11.003906 -6.53125 11.289062 -6.390625 11.59375 -6.390625 L 15.84375 -6.390625 C 16.175781 -6.390625 16.46875 -6.53125 16.71875 -6.8125 C 16.976562 -7.101562 17.109375 -7.398438 17.109375 -7.703125 L 17.109375 -8.96875 L 24.90625 -8.96875 L 24.90625 -5.03125 C 24.90625 -3.632812 24.421875 -2.445312 23.453125 -1.46875 C 22.484375 -0.488281 21.289062 0 19.875 0 L 7.5625 0 C 6.175781 0 4.988281 -0.488281 4 -1.46875 C 3.019531 -2.445312 2.53125 -3.632812 2.53125 -5.03125 L 2.53125 -20.109375 C 2.53125 -21.523438 3.019531 -22.722656 4 -23.703125 C 4.988281 -24.679688 6.175781 -25.171875 7.5625 -25.171875 Z M 10.328125 -15.078125 L 17.109375 -15.078125 L 17.109375 -17.484375 C 17.109375 -17.816406 16.976562 -18.109375 16.71875 -18.359375 C 16.46875 -18.617188 16.175781 -18.75 15.84375 -18.75 L 11.59375 -18.75 C 11.289062 -18.75 11.003906 -18.617188 10.734375 -18.359375 C 10.460938 -18.109375 10.328125 -17.816406 10.328125 -17.484375 Z M 10.328125 -15.078125 "/></g></g></g><g fill="#ff5757" fill-opacity="0.502"><g transform="translate(64.350837, 54.63978)"><g><path d="M 3.265625 -34.59375 L 11.046875 -34.59375 L 11.046875 -25.171875 L 16.625 -25.171875 L 16.625 -18.75 L 11.046875 -18.75 L 11.046875 -7.703125 C 11.046875 -7.398438 11.179688 -7.101562 11.453125 -6.8125 C 11.722656 -6.53125 12.007812 -6.390625 12.3125 -6.390625 L 16.625 -6.390625 L 16.625 0 L 8.28125 0 C 6.894531 0 5.710938 -0.488281 4.734375 -1.46875 C 3.753906 -2.445312 3.265625 -3.632812 3.265625 -5.03125 Z M 3.265625 -34.59375 "/></g></g></g><g fill="#ff5757" fill-opacity="0.302"><g transform="translate(84.550889, 56.835391)"><g><path d="M 7.5625 -35.234375 L 26.171875 -35.234375 C 27.078125 -35.234375 27.914062 -35.003906 28.6875 -34.546875 C 29.457031 -34.097656 30.066406 -33.488281 30.515625 -32.71875 C 30.972656 -31.945312 31.203125 -31.109375 31.203125 -30.203125 L 31.203125 -5.03125 C 31.203125 -4.125 30.972656 -3.289062 30.515625 -2.53125 C 30.066406 -1.78125 29.457031 -1.171875 28.6875 -0.703125 C 27.914062 -0.234375 27.078125 0 26.171875 0 L 21.1875 0 L 21.1875 7.5625 L 12.640625 7.5625 L 12.640625 0 L 7.5625 0 C 6.65625 0 5.820312 -0.234375 5.0625 -0.703125 C 4.3125 -1.171875 3.703125 -1.78125 3.234375 -2.53125 C 2.765625 -3.289062 2.53125 -4.125 2.53125 -5.03125 L 2.53125 -30.203125 C 2.53125 -31.109375 2.765625 -31.945312 3.234375 -32.71875 C 3.703125 -33.488281 4.3125 -34.097656 5.0625 -34.546875 C 5.820312 -35.003906 6.65625 -35.234375 7.5625 -35.234375 Z M 12.3125 -28.03125 C 11.945312 -28.03125 11.644531 -27.914062 11.40625 -27.6875 C 11.164062 -27.457031 11.046875 -27.164062 11.046875 -26.8125 L 11.046875 -8.421875 C 11.046875 -8.054688 11.164062 -7.757812 11.40625 -7.53125 C 11.644531 -7.3125 11.945312 -7.203125 12.3125 -7.203125 L 21.375 -7.203125 C 21.738281 -7.203125 22.039062 -7.3125 22.28125 -7.53125 C 22.519531 -7.757812 22.640625 -8.054688 22.640625 -8.421875 L 22.640625 -26.8125 C 22.640625 -27.164062 22.519531 -27.457031 22.28125 -27.6875 C 22.039062 -27.914062 21.738281 -28.03125 21.375 -28.03125 Z M 12.3125 -28.03125 "/></g></g></g><g fill="#ff5757" fill-opacity="0.302"><g transform="translate(118.243215, 56.835391)"><g><path d="M 2.53125 -25.171875 L 10.328125 -25.171875 L 10.328125 -7.703125 C 10.328125 -7.398438 10.460938 -7.101562 10.734375 -6.8125 C 11.003906 -6.53125 11.289062 -6.390625 11.59375 -6.390625 L 14.578125 -6.390625 C 15.273438 -6.390625 15.867188 -6.660156 16.359375 -7.203125 C 16.859375 -7.742188 17.109375 -8.363281 17.109375 -9.0625 L 17.109375 -25.171875 L 24.90625 -25.171875 L 24.90625 0 L 17.109375 0 L 17.109375 -3.390625 C 16.628906 -2.335938 15.90625 -1.507812 14.9375 -0.90625 C 13.976562 -0.300781 12.96875 0 11.90625 0 L 7.5625 0 C 6.175781 0 4.988281 -0.488281 4 -1.46875 C 3.019531 -2.445312 2.53125 -3.632812 2.53125 -5.03125 Z M 2.53125 -25.171875 "/></g></g></g><g fill="#ff5757" fill-opacity="0.302"><g transform="translate(145.595584, 56.835391)"><g><path d="M 7.5625 -25.171875 L 19.875 -25.171875 C 21.289062 -25.171875 22.484375 -24.679688 23.453125 -23.703125 C 24.421875 -22.722656 24.90625 -21.523438 24.90625 -20.109375 L 24.90625 -10.046875 L 10.328125 -10.046875 L 10.328125 -7.703125 C 10.328125 -7.398438 10.460938 -7.101562 10.734375 -6.8125 C 11.003906 -6.53125 11.289062 -6.390625 11.59375 -6.390625 L 15.84375 -6.390625 C 16.175781 -6.390625 16.46875 -6.53125 16.71875 -6.8125 C 16.976562 -7.101562 17.109375 -7.398438 17.109375 -7.703125 L 17.109375 -8.96875 L 24.90625 -8.96875 L 24.90625 -5.03125 C 24.90625 -3.632812 24.421875 -2.445312 23.453125 -1.46875 C 22.484375 -0.488281 21.289062 0 19.875 0 L 7.5625 0 C 6.175781 0 4.988281 -0.488281 4 -1.46875 C 3.019531 -2.445312 2.53125 -3.632812 2.53125 -5.03125 L 2.53125 -20.109375 C 2.53125 -21.523438 3.019531 -22.722656 4 -23.703125 C 4.988281 -24.679688 6.175781 -25.171875 7.5625 -25.171875 Z M 10.328125 -15.078125 L 17.109375 -15.078125 L 17.109375 -17.484375 C 17.109375 -17.816406 16.976562 -18.109375 16.71875 -18.359375 C 16.46875 -18.617188 16.175781 -18.75 15.84375 -18.75 L 11.59375 -18.75 C 11.289062 -18.75 11.003906 -18.617188 10.734375 -18.359375 C 10.460938 -18.109375 10.328125 -17.816406 10.328125 -17.484375 Z M 10.328125 -15.078125 "/></g></g></g><g fill="#ff5757" fill-opacity="0.302"><g transform="translate(172.947949, 56.835391)"><g><path d="M 7.5625 -25.171875 L 19.875 -25.171875 C 20.78125 -25.171875 21.617188 -24.9375 22.390625 -24.46875 C 23.160156 -24 23.769531 -23.378906 24.21875 -22.609375 C 24.675781 -21.847656 24.90625 -21.015625 24.90625 -20.109375 L 24.90625 -16.484375 L 17.109375 -16.484375 L 17.109375 -17.484375 C 17.109375 -17.816406 16.976562 -18.109375 16.71875 -18.359375 C 16.46875 -18.617188 16.175781 -18.75 15.84375 -18.75 L 11.59375 -18.75 C 11.289062 -18.75 11.003906 -18.617188 10.734375 -18.359375 C 10.460938 -18.109375 10.328125 -17.816406 10.328125 -17.484375 L 10.328125 -16.34375 C 10.328125 -16.039062 10.460938 -15.753906 10.734375 -15.484375 C 11.003906 -15.210938 11.289062 -15.078125 11.59375 -15.078125 L 19.875 -15.078125 C 21.289062 -15.078125 22.484375 -14.5625 23.453125 -13.53125 C 24.421875 -12.507812 24.90625 -11.273438 24.90625 -9.828125 L 24.90625 -5.03125 C 24.90625 -3.632812 24.421875 -2.445312 23.453125 -1.46875 C 22.484375 -0.488281 21.289062 0 19.875 0 L 7.5625 0 C 6.65625 0 5.820312 -0.234375 5.0625 -0.703125 C 4.3125 -1.171875 3.703125 -1.78125 3.234375 -2.53125 C 2.765625 -3.289062 2.53125 -4.125 2.53125 -5.03125 L 2.53125 -8.65625 L 10.328125 -8.65625 L 10.328125 -7.703125 C 10.328125 -7.398438 10.460938 -7.101562 10.734375 -6.8125 C 11.003906 -6.53125 11.289062 -6.390625 11.59375 -6.390625 L 15.84375 -6.390625 C 16.175781 -6.390625 16.46875 -6.53125 16.71875 -6.8125 C 16.976562 -7.101562 17.109375 -7.398438 17.109375 -7.703125 L 17.109375 -8.78125 C 17.109375 -9.113281 16.976562 -9.40625 16.71875 -9.65625 C 16.46875 -9.914062 16.175781 -10.046875 15.84375 -10.046875 L 7.5625 -10.046875 C 6.175781 -10.046875 4.988281 -10.535156 4 -11.515625 C 3.019531 -12.503906 2.53125 -13.691406 2.53125 -15.078125 L 2.53125 -20.109375 C 2.53125 -21.523438 3.019531 -22.722656 4 -23.703125 C 4.988281 -24.679688 6.175781 -25.171875 7.5625 -25.171875 Z M 7.5625 -25.171875 "/></g></g></g><g fill="#ff5757" fill-opacity="0.302"><g transform="translate(200.300314, 56.835391)"><g><path d="M 3.265625 -34.59375 L 11.046875 -34.59375 L 11.046875 -25.171875 L 16.625 -25.171875 L 16.625 -18.75 L 11.046875 -18.75 L 11.046875 -7.703125 C 11.046875 -7.398438 11.179688 -7.101562 11.453125 -6.8125 C 11.722656 -6.53125 12.007812 -6.390625 12.3125 -6.390625 L 16.625 -6.390625 L 16.625 0 L 8.28125 0 C 6.894531 0 5.710938 -0.488281 4.734375 -1.46875 C 3.753906 -2.445312 3.265625 -3.632812 3.265625 -5.03125 Z M 3.265625 -34.59375 "/></g></g></g><g fill="#ff5757" fill-opacity="0.502"><g transform="translate(81.740636, 54.63978)"><g><path d="M 7.5625 -35.234375 L 26.171875 -35.234375 C 27.078125 -35.234375 27.914062 -35.003906 28.6875 -34.546875 C 29.457031 -34.097656 30.066406 -33.488281 30.515625 -32.71875 C 30.972656 -31.945312 31.203125 -31.109375 31.203125 -30.203125 L 31.203125 -5.03125 C 31.203125 -4.125 30.972656 -3.289062 30.515625 -2.53125 C 30.066406 -1.78125 29.457031 -1.171875 28.6875 -0.703125 C 27.914062 -0.234375 27.078125 0 26.171875 0 L 21.1875 0 L 21.1875 7.5625 L 12.640625 7.5625 L 12.640625 0 L 7.5625 0 C 6.65625 0 5.820312 -0.234375 5.0625 -0.703125 C 4.3125 -1.171875 3.703125 -1.78125 3.234375 -2.53125 C 2.765625 -3.289062 2.53125 -4.125 2.53125 -5.03125 L 2.53125 -30.203125 C 2.53125 -31.109375 2.765625 -31.945312 3.234375 -32.71875 C 3.703125 -33.488281 4.3125 -34.097656 5.0625 -34.546875 C 5.820312 -35.003906 6.65625 -35.234375 7.5625 -35.234375 Z M 12.3125 -28.03125 C 11.945312 -28.03125 11.644531 -27.914062 11.40625 -27.6875 C 11.164062 -27.457031 11.046875 -27.164062 11.046875 -26.8125 L 11.046875 -8.421875 C 11.046875 -8.054688 11.164062 -7.757812 11.40625 -7.53125 C 11.644531 -7.3125 11.945312 -7.203125 12.3125 -7.203125 L 21.375 -7.203125 C 21.738281 -7.203125 22.039062 -7.3125 22.28125 -7.53125 C 22.519531 -7.757812 22.640625 -8.054688 22.640625 -8.421875 L 22.640625 -26.8125 C 22.640625 -27.164062 22.519531 -27.457031 22.28125 -27.6875 C 22.039062 -27.914062 21.738281 -28.03125 21.375 -28.03125 Z M 12.3125 -28.03125 "/></g></g></g><g fill="#ff5757" fill-opacity="0.502"><g transform="translate(115.432962, 54.63978)"><g><path d="M 2.53125 -25.171875 L 10.328125 -25.171875 L 10.328125 -7.703125 C 10.328125 -7.398438 10.460938 -7.101562 10.734375 -6.8125 C 11.003906 -6.53125 11.289062 -6.390625 11.59375 -6.390625 L 14.578125 -6.390625 C 15.273438 -6.390625 15.867188 -6.660156 16.359375 -7.203125 C 16.859375 -7.742188 17.109375 -8.363281 17.109375 -9.0625 L 17.109375 -25.171875 L 24.90625 -25.171875 L 24.90625 0 L 17.109375 0 L 17.109375 -3.390625 C 16.628906 -2.335938 15.90625 -1.507812 14.9375 -0.90625 C 13.976562 -0.300781 12.96875 0 11.90625 0 L 7.5625 0 C 6.175781 0 4.988281 -0.488281 4 -1.46875 C 3.019531 -2.445312 2.53125 -3.632812 2.53125 -5.03125 Z M 2.53125 -25.171875 "/></g></g></g><g fill="#ff5757" fill-opacity="0.502"><g transform="translate(142.785331, 54.63978)"><g><path d="M 7.5625 -25.171875 L 19.875 -25.171875 C 21.289062 -25.171875 22.484375 -24.679688 23.453125 -23.703125 C 24.421875 -22.722656 24.90625 -21.523438 24.90625 -20.109375 L 24.90625 -10.046875 L 10.328125 -10.046875 L 10.328125 -7.703125 C 10.328125 -7.398438 10.460938 -7.101562 10.734375 -6.8125 C 11.003906 -6.53125 11.289062 -6.390625 11.59375 -6.390625 L 15.84375 -6.390625 C 16.175781 -6.390625 16.46875 -6.53125 16.71875 -6.8125 C 16.976562 -7.101562 17.109375 -7.398438 17.109375 -7.703125 L 17.109375 -8.96875 L 24.90625 -8.96875 L 24.90625 -5.03125 C 24.90625 -3.632812 24.421875 -2.445312 23.453125 -1.46875 C 22.484375 -0.488281 21.289062 0 19.875 0 L 7.5625 0 C 6.175781 0 4.988281 -0.488281 4 -1.46875 C 3.019531 -2.445312 2.53125 -3.632812 2.53125 -5.03125 L 2.53125 -20.109375 C 2.53125 -21.523438 3.019531 -22.722656 4 -23.703125 C 4.988281 -24.679688 6.175781 -25.171875 7.5625 -25.171875 Z M 10.328125 -15.078125 L 17.109375 -15.078125 L 17.109375 -17.484375 C 17.109375 -17.816406 16.976562 -18.109375 16.71875 -18.359375 C 16.46875 -18.617188 16.175781 -18.75 15.84375 -18.75 L 11.59375 -18.75 C 11.289062 -18.75 11.003906 -18.617188 10.734375 -18.359375 C 10.460938 -18.109375 10.328125 -17.816406 10.328125 -17.484375 Z M 10.328125 -15.078125 "/></g></g></g><g fill="#ff5757" fill-opacity="0.502"><g transform="translate(170.137696, 54.63978)"><g><path d="M 7.5625 -25.171875 L 19.875 -25.171875 C 20.78125 -25.171875 21.617188 -24.9375 22.390625 -24.46875 C 23.160156 -24 23.769531 -23.378906 24.21875 -22.609375 C 24.675781 -21.847656 24.90625 -21.015625 24.90625 -20.109375 L 24.90625 -16.484375 L 17.109375 -16.484375 L 17.109375 -17.484375 C 17.109375 -17.816406 16.976562 -18.109375 16.71875 -18.359375 C 16.46875 -18.617188 16.175781 -18.75 15.84375 -18.75 L 11.59375 -18.75 C 11.289062 -18.75 11.003906 -18.617188 10.734375 -18.359375 C 10.460938 -18.109375 10.328125 -17.816406 10.328125 -17.484375 L 10.328125 -16.34375 C 10.328125 -16.039062 10.460938 -15.753906 10.734375 -15.484375 C 11.003906 -15.210938 11.289062 -15.078125 11.59375 -15.078125 L 19.875 -15.078125 C 21.289062 -15.078125 22.484375 -14.5625 23.453125 -13.53125 C 24.421875 -12.507812 24.90625 -11.273438 24.90625 -9.828125 L 24.90625 -5.03125 C 24.90625 -3.632812 24.421875 -2.445312 23.453125 -1.46875 C 22.484375 -0.488281 21.289062 0 19.875 0 L 7.5625 0 C 6.65625 0 5.820312 -0.234375 5.0625 -0.703125 C 4.3125 -1.171875 3.703125 -1.78125 3.234375 -2.53125 C 2.765625 -3.289062 2.53125 -4.125 2.53125 -5.03125 L 2.53125 -8.65625 L 10.328125 -8.65625 L 10.328125 -7.703125 C 10.328125 -7.398438 10.460938 -7.101562 10.734375 -6.8125 C 11.003906 -6.53125 11.289062 -6.390625 11.59375 -6.390625 L 15.84375 -6.390625 C 16.175781 -6.390625 16.46875 -6.53125 16.71875 -6.8125 C 16.976562 -7.101562 17.109375 -7.398438 17.109375 -7.703125 L 17.109375 -8.78125 C 17.109375 -9.113281 16.976562 -9.40625 16.71875 -9.65625 C 16.46875 -9.914062 16.175781 -10.046875 15.84375 -10.046875 L 7.5625 -10.046875 C 6.175781 -10.046875 4.988281 -10.535156 4 -11.515625 C 3.019531 -12.503906 2.53125 -13.691406 2.53125 -15.078125 L 2.53125 -20.109375 C 2.53125 -21.523438 3.019531 -22.722656 4 -23.703125 C 4.988281 -24.679688 6.175781 -25.171875 7.5625 -25.171875 Z M 7.5625 -25.171875 "/></g></g></g><g fill="#ff5757" fill-opacity="0.502"><g transform="translate(197.490061, 54.63978)"><g><path d="M 3.265625 -34.59375 L 11.046875 -34.59375 L 11.046875 -25.171875 L 16.625 -25.171875 L 16.625 -18.75 L 11.046875 -18.75 L 11.046875 -7.703125 C 11.046875 -7.398438 11.179688 -7.101562 11.453125 -6.8125 C 11.722656 -6.53125 12.007812 -6.390625 12.3125 -6.390625 L 16.625 -6.390625 L 16.625 0 L 8.28125 0 C 6.894531 0 5.710938 -0.488281 4.734375 -1.46875 C 3.753906 -2.445312 3.265625 -3.632812 3.265625 -5.03125 Z M 3.265625 -34.59375 "/></g></g></g><g fill="#9fe88d" fill-opacity="1"><g transform="translate(0.49589, 52.44417)"><g><path d="M 2.53125 -35.234375 L 11.046875 -35.234375 L 22.640625 -14.890625 L 22.640625 -35.234375 L 31.203125 -35.234375 L 31.203125 0 L 22.640625 0 L 11.046875 -20.328125 L 11.046875 0 L 2.53125 0 Z M 2.53125 -35.234375 "/></g></g></g><g fill="#9fe88d" fill-opacity="1"><g transform="translate(34.188216, 52.44417)"><g><path d="M 7.5625 -25.171875 L 19.875 -25.171875 C 21.289062 -25.171875 22.484375 -24.679688 23.453125 -23.703125 C 24.421875 -22.722656 24.90625 -21.523438 24.90625 -20.109375 L 24.90625 -10.046875 L 10.328125 -10.046875 L 10.328125 -7.703125 C 10.328125 -7.398438 10.460938 -7.101562 10.734375 -6.8125 C 11.003906 -6.53125 11.289062 -6.390625 11.59375 -6.390625 L 15.84375 -6.390625 C 16.175781 -6.390625 16.46875 -6.53125 16.71875 -6.8125 C 16.976562 -7.101562 17.109375 -7.398438 17.109375 -7.703125 L 17.109375 -8.96875 L 24.90625 -8.96875 L 24.90625 -5.03125 C 24.90625 -3.632812 24.421875 -2.445312 23.453125 -1.46875 C 22.484375 -0.488281 21.289062 0 19.875 0 L 7.5625 0 C 6.175781 0 4.988281 -0.488281 4 -1.46875 C 3.019531 -2.445312 2.53125 -3.632812 2.53125 -5.03125 L 2.53125 -20.109375 C 2.53125 -21.523438 3.019531 -22.722656 4 -23.703125 C 4.988281 -24.679688 6.175781 -25.171875 7.5625 -25.171875 Z M 10.328125 -15.078125 L 17.109375 -15.078125 L 17.109375 -17.484375 C 17.109375 -17.816406 16.976562 -18.109375 16.71875 -18.359375 C 16.46875 -18.617188 16.175781 -18.75 15.84375 -18.75 L 11.59375 -18.75 C 11.289062 -18.75 11.003906 -18.617188 10.734375 -18.359375 C 10.460938 -18.109375 10.328125 -17.816406 10.328125 -17.484375 Z M 10.328125 -15.078125 "/></g></g></g><g fill="#9fe88d" fill-opacity="1"><g transform="translate(61.540585, 52.44417)"><g><path d="M 3.265625 -34.59375 L 11.046875 -34.59375 L 11.046875 -25.171875 L 16.625 -25.171875 L 16.625 -18.75 L 11.046875 -18.75 L 11.046875 -7.703125 C 11.046875 -7.398438 11.179688 -7.101562 11.453125 -6.8125 C 11.722656 -6.53125 12.007812 -6.390625 12.3125 -6.390625 L 16.625 -6.390625 L 16.625 0 L 8.28125 0 C 6.894531 0 5.710938 -0.488281 4.734375 -1.46875 C 3.753906 -2.445312 3.265625 -3.632812 3.265625 -5.03125 Z M 3.265625 -34.59375 "/></g></g></g><g fill="#f6fcf9" fill-opacity="1"><g transform="translate(78.930384, 52.44417)"><g><path d="M 7.5625 -35.234375 L 26.171875 -35.234375 C 27.078125 -35.234375 27.914062 -35.003906 28.6875 -34.546875 C 29.457031 -34.097656 30.066406 -33.488281 30.515625 -32.71875 C 30.972656 -31.945312 31.203125 -31.109375 31.203125 -30.203125 L 31.203125 -5.03125 C 31.203125 -4.125 30.972656 -3.289062 30.515625 -2.53125 C 30.066406 -1.78125 29.457031 -1.171875 28.6875 -0.703125 C 27.914062 -0.234375 27.078125 0 26.171875 0 L 21.1875 0 L 21.1875 7.5625 L 12.640625 7.5625 L 12.640625 0 L 7.5625 0 C 6.65625 0 5.820312 -0.234375 5.0625 -0.703125 C 4.3125 -1.171875 3.703125 -1.78125 3.234375 -2.53125 C 2.765625 -3.289062 2.53125 -4.125 2.53125 -5.03125 L 2.53125 -30.203125 C 2.53125 -31.109375 2.765625 -31.945312 3.234375 -32.71875 C 3.703125 -33.488281 4.3125 -34.097656 5.0625 -34.546875 C 5.820312 -35.003906 6.65625 -35.234375 7.5625 -35.234375 Z M 12.3125 -28.03125 C 11.945312 -28.03125 11.644531 -27.914062 11.40625 -27.6875 C 11.164062 -27.457031 11.046875 -27.164062 11.046875 -26.8125 L 11.046875 -8.421875 C 11.046875 -8.054688 11.164062 -7.757812 11.40625 -7.53125 C 11.644531 -7.3125 11.945312 -7.203125 12.3125 -7.203125 L 21.375 -7.203125 C 21.738281 -7.203125 22.039062 -7.3125 22.28125 -7.53125 C 22.519531 -7.757812 22.640625 -8.054688 22.640625 -8.421875 L 22.640625 -26.8125 C 22.640625 -27.164062 22.519531 -27.457031 22.28125 -27.6875 C 22.039062 -27.914062 21.738281 -28.03125 21.375 -28.03125 Z M 12.3125 -28.03125 "/></g></g></g><g fill="#f6fcf9" fill-opacity="1"><g transform="translate(112.622709, 52.44417)"><g><path d="M 2.53125 -25.171875 L 10.328125 -25.171875 L 10.328125 -7.703125 C 10.328125 -7.398438 10.460938 -7.101562 10.734375 -6.8125 C 11.003906 -6.53125 11.289062 -6.390625 11.59375 -6.390625 L 14.578125 -6.390625 C 15.273438 -6.390625 15.867188 -6.660156 16.359375 -7.203125 C 16.859375 -7.742188 17.109375 -8.363281 17.109375 -9.0625 L 17.109375 -25.171875 L 24.90625 -25.171875 L 24.90625 0 L 17.109375 0 L 17.109375 -3.390625 C 16.628906 -2.335938 15.90625 -1.507812 14.9375 -0.90625 C 13.976562 -0.300781 12.96875 0 11.90625 0 L 7.5625 0 C 6.175781 0 4.988281 -0.488281 4 -1.46875 C 3.019531 -2.445312 2.53125 -3.632812 2.53125 -5.03125 Z M 2.53125 -25.171875 "/></g></g></g><g fill="#f6fcf9" fill-opacity="1"><g transform="translate(139.975079, 52.44417)"><g><path d="M 7.5625 -25.171875 L 19.875 -25.171875 C 21.289062 -25.171875 22.484375 -24.679688 23.453125 -23.703125 C 24.421875 -22.722656 24.90625 -21.523438 24.90625 -20.109375 L 24.90625 -10.046875 L 10.328125 -10.046875 L 10.328125 -7.703125 C 10.328125 -7.398438 10.460938 -7.101562 10.734375 -6.8125 C 11.003906 -6.53125 11.289062 -6.390625 11.59375 -6.390625 L 15.84375 -6.390625 C 16.175781 -6.390625 16.46875 -6.53125 16.71875 -6.8125 C 16.976562 -7.101562 17.109375 -7.398438 17.109375 -7.703125 L 17.109375 -8.96875 L 24.90625 -8.96875 L 24.90625 -5.03125 C 24.90625 -3.632812 24.421875 -2.445312 23.453125 -1.46875 C 22.484375 -0.488281 21.289062 0 19.875 0 L 7.5625 0 C 6.175781 0 4.988281 -0.488281 4 -1.46875 C 3.019531 -2.445312 2.53125 -3.632812 2.53125 -5.03125 L 2.53125 -20.109375 C 2.53125 -21.523438 3.019531 -22.722656 4 -23.703125 C 4.988281 -24.679688 6.175781 -25.171875 7.5625 -25.171875 Z M 10.328125 -15.078125 L 17.109375 -15.078125 L 17.109375 -17.484375 C 17.109375 -17.816406 16.976562 -18.109375 16.71875 -18.359375 C 16.46875 -18.617188 16.175781 -18.75 15.84375 -18.75 L 11.59375 -18.75 C 11.289062 -18.75 11.003906 -18.617188 10.734375 -18.359375 C 10.460938 -18.109375 10.328125 -17.816406 10.328125 -17.484375 Z M 10.328125 -15.078125 "/></g></g></g><g fill="#f6fcf9" fill-opacity="1"><g transform="translate(167.327444, 52.44417)"><g><path d="M 7.5625 -25.171875 L 19.875 -25.171875 C 20.78125 -25.171875 21.617188 -24.9375 22.390625 -24.46875 C 23.160156 -24 23.769531 -23.378906 24.21875 -22.609375 C 24.675781 -21.847656 24.90625 -21.015625 24.90625 -20.109375 L 24.90625 -16.484375 L 17.109375 -16.484375 L 17.109375 -17.484375 C 17.109375 -17.816406 16.976562 -18.109375 16.71875 -18.359375 C 16.46875 -18.617188 16.175781 -18.75 15.84375 -18.75 L 11.59375 -18.75 C 11.289062 -18.75 11.003906 -18.617188 10.734375 -18.359375 C 10.460938 -18.109375 10.328125 -17.816406 10.328125 -17.484375 L 10.328125 -16.34375 C 10.328125 -16.039062 10.460938 -15.753906 10.734375 -15.484375 C 11.003906 -15.210938 11.289062 -15.078125 11.59375 -15.078125 L 19.875 -15.078125 C 21.289062 -15.078125 22.484375 -14.5625 23.453125 -13.53125 C 24.421875 -12.507812 24.90625 -11.273438 24.90625 -9.828125 L 24.90625 -5.03125 C 24.90625 -3.632812 24.421875 -2.445312 23.453125 -1.46875 C 22.484375 -0.488281 21.289062 0 19.875 0 L 7.5625 0 C 6.65625 0 5.820312 -0.234375 5.0625 -0.703125 C 4.3125 -1.171875 3.703125 -1.78125 3.234375 -2.53125 C 2.765625 -3.289062 2.53125 -4.125 2.53125 -5.03125 L 2.53125 -8.65625 L 10.328125 -8.65625 L 10.328125 -7.703125 C 10.328125 -7.398438 10.460938 -7.101562 10.734375 -6.8125 C 11.003906 -6.53125 11.289062 -6.390625 11.59375 -6.390625 L 15.84375 -6.390625 C 16.175781 -6.390625 16.46875 -6.53125 16.71875 -6.8125 C 16.976562 -7.101562 17.109375 -7.398438 17.109375 -7.703125 L 17.109375 -8.78125 C 17.109375 -9.113281 16.976562 -9.40625 16.71875 -9.65625 C 16.46875 -9.914062 16.175781 -10.046875 15.84375 -10.046875 L 7.5625 -10.046875 C 6.175781 -10.046875 4.988281 -10.535156 4 -11.515625 C 3.019531 -12.503906 2.53125 -13.691406 2.53125 -15.078125 L 2.53125 -20.109375 C 2.53125 -21.523438 3.019531 -22.722656 4 -23.703125 C 4.988281 -24.679688 6.175781 -25.171875 7.5625 -25.171875 Z M 7.5625 -25.171875 "/></g></g></g><g fill="#f6fcf9" fill-opacity="1"><g transform="translate(194.679809, 52.44417)"><g><path d="M 3.265625 -34.59375 L 11.046875 -34.59375 L 11.046875 -25.171875 L 16.625 -25.171875 L 16.625 -18.75 L 11.046875 -18.75 L 11.046875 -7.703125 C 11.046875 -7.398438 11.179688 -7.101562 11.453125 -6.8125 C 11.722656 -6.53125 12.007812 -6.390625 12.3125 -6.390625 L 16.625 -6.390625 L 16.625 0 L 8.28125 0 C 6.894531 0 5.710938 -0.488281 4.734375 -1.46875 C 3.753906 -2.445312 3.265625 -3.632812 3.265625 -5.03125 Z M 3.265625 -34.59375 "/></g></g></g></g></g></g></svg>